<svg width="17" height="17" viewBox="0 0 17 17" fill="none" xmlns="http://www.w3.org/2000/svg">
<path d="M12.2188 1.0625L13.065 2.65625L14.875 2.87619L13.5469 4.07309L13.8125 5.84375L12.2188 4.84766L10.625 5.84375L10.8906 4.07309L9.5625 2.87619L11.4219 2.65625L12.2188 1.0625Z" fill="black"/>
<path d="M12.0684 7.03853L11.0389 6.77397C10.8543 7.48491 10.4632 8.1252 9.9149 8.61395C9.36662 9.1027 8.68577 9.41799 7.95839 9.51997C7.231 9.62195 6.4897 9.50606 5.82815 9.18693C5.1666 8.8678 4.61447 8.35976 4.24153 7.72698C3.86858 7.09421 3.69155 6.36509 3.7328 5.63175C3.77404 4.8984 4.03172 4.19374 4.47327 3.60677C4.91481 3.01981 5.52043 2.57688 6.21359 2.33394C6.90676 2.09101 7.65637 2.05897 8.36774 2.24188L8.63283 1.21285C7.59582 0.943104 6.49823 1.02993 5.51652 1.45935C4.53482 1.88878 3.72604 2.63586 3.22023 3.58047C2.71441 4.52509 2.54095 5.61236 2.72773 6.66747C2.9145 7.72259 3.45067 8.68424 4.25002 9.39781V15.9375L7.43752 13.8125L10.625 15.9375V9.40738C11.3306 8.77852 11.8331 7.9539 12.0684 7.03853ZM9.56252 13.9522L7.43752 12.5354L5.31252 13.9522V10.1203C5.97182 10.4515 6.69932 10.6243 7.43714 10.6248C8.17496 10.6254 8.90272 10.4537 9.56252 10.1235V13.9522Z" fill="black"/>
</svg>
