<svg width="40" height="40" viewBox="0 0 40 40" fill="none" xmlns="http://www.w3.org/2000/svg">
<rect width="40" height="40" rx="8" fill="#2B679B"/>
<path d="M20 11.6667C20.3315 11.6667 20.6495 11.7984 20.8839 12.0328C21.1183 12.2672 21.25 12.5851 21.25 12.9167V18.75H27.0833C27.4149 18.75 27.7328 18.8817 27.9672 19.1161C28.2016 19.3505 28.3333 19.6685 28.3333 20C28.3333 20.3315 28.2016 20.6495 27.9672 20.8839C27.7328 21.1183 27.4149 21.25 27.0833 21.25H21.25V27.0833C21.25 27.4148 21.1183 27.7328 20.8839 27.9672C20.6495 28.2016 20.3315 28.3333 20 28.3333C19.6685 28.3333 19.3505 28.2016 19.1161 27.9672C18.8817 27.7328 18.75 27.4148 18.75 27.0833V21.25H12.9167C12.5851 21.25 12.2672 21.1183 12.0328 20.8839C11.7984 20.6495 11.6667 20.3315 11.6667 20C11.6667 19.6685 11.7984 19.3505 12.0328 19.1161C12.2672 18.8817 12.5851 18.75 12.9167 18.75H18.75V12.9167C18.75 12.5851 18.8817 12.2672 19.1161 12.0328C19.3505 11.7984 19.6685 11.6667 20 11.6667Z" fill="#F7CA59"/>
<path d="M5 10.4167C5 8.98008 5.57068 7.60233 6.5865 6.5865C7.60233 5.57068 8.98008 5 10.4167 5H29.5833C31.0199 5 32.3977 5.57068 33.4135 6.5865C34.4293 7.60233 35 8.98008 35 10.4167V29.5833C35 31.0199 34.4293 32.3977 33.4135 33.4135C32.3977 34.4293 31.0199 35 29.5833 35H10.4167C8.98008 35 7.60233 34.4293 6.5865 33.4135C5.57068 32.3977 5 31.0199 5 29.5833V10.4167ZM10.4167 7.5C9.64312 7.5 8.90125 7.80729 8.35427 8.35427C7.80729 8.90125 7.5 9.64312 7.5 10.4167V29.5833C7.5 31.1933 8.80667 32.5 10.4167 32.5H29.5833C30.3569 32.5 31.0987 32.1927 31.6457 31.6457C32.1927 31.0987 32.5 30.3569 32.5 29.5833V10.4167C32.5 9.64312 32.1927 8.90125 31.6457 8.35427C31.0987 7.80729 30.3569 7.5 29.5833 7.5H10.4167Z" fill="#F7CA59"/>
</svg>
