<svg width="27" height="28" viewBox="0 0 27 28" fill="currentColor" xmlns="http://www.w3.org/2000/svg">
<path d="M24.7141 10.2523C24.2751 10.4759 23.8079 10.6391 23.3251 10.7374C23.5689 11.4851 23.6954 12.266 23.6999 13.0524C23.6831 14.1806 23.4321 15.293 22.9628 16.319C22.4934 17.3451 21.8159 18.2624 20.9733 19.0128C20.8994 19.0813 20.8404 19.1643 20.7999 19.2566C20.7595 19.3489 20.7384 19.4485 20.7381 19.5493V23.4738L17.5191 21.4233C17.4293 21.3666 17.3283 21.33 17.223 21.316C17.1177 21.302 17.0106 21.3111 16.9091 21.3425C15.7764 21.6943 14.5969 21.8727 13.4108 21.8716C7.73714 21.8716 3.12175 17.9177 3.12175 13.0524C3.12175 8.18718 7.73714 4.23323 13.4108 4.23323C14.543 4.23309 15.6693 4.39647 16.7548 4.71829C16.8006 4.23036 16.9119 3.75081 17.0855 3.29252C15.8916 2.94428 14.6545 2.76614 13.4108 2.76337C6.92871 2.76337 1.65189 7.37875 1.65189 13.0524C1.65189 18.7261 6.92871 23.3415 13.4108 23.3415C14.6236 23.3401 15.8304 23.172 16.9973 22.8418L21.0615 25.4287C21.1724 25.4999 21.3005 25.5399 21.4322 25.5446C21.564 25.5493 21.6946 25.5185 21.8103 25.4554C21.926 25.3922 22.0226 25.2991 22.09 25.1858C22.1574 25.0725 22.1931 24.9432 22.1933 24.8114V19.8653C23.1129 18.9831 23.8467 17.9259 24.3515 16.7559C24.8564 15.5859 25.1221 14.3267 25.133 13.0524C25.1411 12.1029 24.9997 11.158 24.7141 10.2523V10.2523Z" fill="currentColor"/>
<path d="M8.26629 12.3175C8.07137 12.3175 7.88444 12.3949 7.74661 12.5327C7.60879 12.6706 7.53136 12.8575 7.53136 13.0524C7.53136 13.2473 7.60879 13.4343 7.74661 13.5721C7.88444 13.7099 8.07137 13.7873 8.26629 13.7873H18.5554C18.7503 13.7873 18.9372 13.7099 19.075 13.5721C19.2129 13.4343 19.2903 13.2473 19.2903 13.0524C19.2903 12.8575 19.2129 12.6706 19.075 12.5327C18.9372 12.3949 18.7503 12.3175 18.5554 12.3175H8.26629Z" fill="currentColor"/>
<path d="M10.6548 15.9922C10.4599 15.9922 10.273 16.0696 10.1351 16.2074C9.99732 16.3452 9.91989 16.5322 9.91989 16.7271C9.91989 16.922 9.99732 17.1089 10.1351 17.2468C10.273 17.3846 10.4599 17.462 10.6548 17.462H16.1668C16.3617 17.462 16.5487 17.3846 16.6865 17.2468C16.8243 17.1089 16.9018 16.922 16.9018 16.7271C16.9018 16.5322 16.8243 16.3452 16.6865 16.2074C16.5487 16.0696 16.3617 15.9922 16.1668 15.9922H10.6548Z" fill="currentColor"/>
<path d="M7.73715 9.37773C7.73715 9.57265 7.81458 9.75958 7.95241 9.89741C8.09024 10.0352 8.27717 10.1127 8.47209 10.1127H18.3496C18.472 10.1104 18.5919 10.0777 18.6984 10.0174C18.805 9.95705 18.8947 9.87107 18.9596 9.76724C18.5274 9.44961 18.1437 9.07083 17.8204 8.64279H8.47209C8.27717 8.64279 8.09024 8.72022 7.95241 8.85805C7.81458 8.99588 7.73715 9.18281 7.73715 9.37773Z" fill="currentColor"/>
<path d="M22.23 9.01032C24.2595 9.01032 25.9047 7.36511 25.9047 5.33565C25.9047 3.30619 24.2595 1.66098 22.23 1.66098C20.2006 1.66098 18.5554 3.30619 18.5554 5.33565C18.5554 7.36511 20.2006 9.01032 22.23 9.01032Z" fill="currentColor"/>
</svg>
