<svg width="16" height="16" viewBox="0 0 16 16" fill="none" xmlns="http://www.w3.org/2000/svg">
<rect x="0.320938" y="0.624939" width="14.8047" height="14.8047" rx="7.40235" fill="white"/>
<path d="M11.7287 6.73257C11.5679 6.81447 11.3968 6.87423 11.2199 6.91023C11.3093 7.18407 11.3556 7.4701 11.3572 7.75814C11.3511 8.17134 11.2591 8.57877 11.0872 8.95456C10.9153 9.33036 10.6672 9.66633 10.3586 9.94116C10.3315 9.96626 10.3099 9.99666 10.2951 10.0305C10.2803 10.0643 10.2725 10.1008 10.2724 10.1377V11.5751L9.09343 10.8241C9.06054 10.8033 9.02354 10.7899 8.98497 10.7848C8.9464 10.7796 8.90718 10.783 8.87001 10.7945C8.45514 10.9233 8.02315 10.9887 7.58873 10.9883C5.51068 10.9883 3.82025 9.54009 3.82025 7.75814C3.82025 5.97618 5.51068 4.52801 7.58873 4.52801C8.00341 4.52796 8.41592 4.58779 8.81349 4.70567C8.83028 4.52696 8.87102 4.35132 8.93462 4.18346C8.49733 4.05592 8.04424 3.99067 7.58873 3.98965C5.21458 3.98965 3.28189 5.68009 3.28189 7.75814C3.28189 9.83619 5.21458 11.5266 7.58873 11.5266C8.03291 11.5261 8.47491 11.4645 8.90232 11.3436L10.3909 12.2911C10.4315 12.3172 10.4784 12.3318 10.5267 12.3335C10.5749 12.3352 10.6227 12.324 10.6651 12.3008C10.7075 12.2777 10.7429 12.2436 10.7676 12.2021C10.7923 12.1606 10.8053 12.1133 10.8054 12.065V10.2534C11.1422 9.93031 11.411 9.5431 11.5959 9.11457C11.7808 8.68604 11.8781 8.22484 11.8821 7.75814C11.8851 7.41035 11.8333 7.06427 11.7287 6.73257V6.73257Z" fill="black"/>
<path d="M5.70436 7.489C5.63297 7.489 5.5645 7.51736 5.51402 7.56784C5.46354 7.61832 5.43518 7.68679 5.43518 7.75818C5.43518 7.82957 5.46354 7.89803 5.51402 7.94851C5.5645 7.99899 5.63297 8.02735 5.70436 8.02735H9.47284C9.54423 8.02735 9.6127 7.99899 9.66318 7.94851C9.71366 7.89803 9.74202 7.82957 9.74202 7.75818C9.74202 7.68679 9.71366 7.61832 9.66318 7.56784C9.6127 7.51736 9.54423 7.489 9.47284 7.489H5.70436Z" fill="black"/>
<path d="M6.57933 8.8349C6.50794 8.8349 6.43947 8.86326 6.38899 8.91374C6.33851 8.96422 6.31015 9.03269 6.31015 9.10408C6.31015 9.17547 6.33851 9.24393 6.38899 9.29441C6.43947 9.34489 6.50794 9.37325 6.57933 9.37325H8.59816C8.66955 9.37325 8.73801 9.34489 8.78849 9.29441C8.83897 9.24393 8.86733 9.17547 8.86733 9.10408C8.86733 9.03269 8.83897 8.96422 8.78849 8.91374C8.73801 8.86326 8.66955 8.8349 8.59816 8.8349H6.57933Z" fill="black"/>
<path d="M5.51089 6.41225C5.51089 6.48364 5.53925 6.5521 5.58974 6.60258C5.64022 6.65306 5.70868 6.68142 5.78007 6.68142H9.39782C9.44265 6.68061 9.48656 6.66862 9.52558 6.64652C9.5646 6.62443 9.59748 6.59294 9.62123 6.55491C9.46294 6.43857 9.32239 6.29984 9.20401 6.14307H5.78007C5.70868 6.14307 5.64022 6.17143 5.58974 6.22191C5.53925 6.27239 5.51089 6.34085 5.51089 6.41225Z" fill="black"/>
<path d="M10.8188 6.27765C11.5621 6.27765 12.1647 5.67508 12.1647 4.93176C12.1647 4.18845 11.5621 3.58588 10.8188 3.58588C10.0755 3.58588 9.47295 4.18845 9.47295 4.93176C9.47295 5.67508 10.0755 6.27765 10.8188 6.27765Z" fill="black"/>
</svg>
