<svg width="27" height="28" viewBox="5 4 16 20" fill="currentColor" xmlns="http://www.w3.org/2000/svg">
<path d="M13.9225 14.5627C14.304 14.5626 14.6713 14.714 14.951 14.9867C15.2307 15.2593 15.402 15.633 15.4306 16.0329L15.4344 16.1521V16.5486H14.3005V16.1521C14.3004 16.0591 14.2693 15.9691 14.2127 15.8977C14.1561 15.8263 14.0775 15.778 13.9906 15.7611L13.9225 15.7547L7.11916 15.7539L7.04357 15.7619C6.97101 15.7778 6.90435 15.8153 6.85156 15.87C6.79954 15.9251 6.76383 15.995 6.74875 16.071L6.74119 16.1513V17.7407C6.74119 18.5425 7.08136 19.1091 7.81235 19.5224C8.43675 19.876 9.32648 20.0898 10.2812 20.1208L10.5209 20.1248L10.7605 20.1208C11.3185 20.1065 11.8727 20.02 12.4107 19.8633V21.0951C11.7908 21.2443 11.1568 21.3187 10.5209 21.3168C8.46321 21.3168 5.73202 20.5571 5.61108 17.9235L5.6073 17.7407V16.1513C5.6073 15.3137 6.22414 14.6271 7.00577 14.5659L7.11916 14.5619L13.9225 14.5627ZM20.348 16.5486C20.4772 16.5486 20.6035 16.5621 20.7259 16.5884V16.1521L20.7214 16.0329C20.6924 15.6334 20.5211 15.2601 20.2416 14.9876C19.9622 14.7152 19.5952 14.5637 19.2141 14.5635H15.6007L15.702 14.6906C15.9295 14.995 16.0883 15.3574 16.1518 15.7555H19.2141L19.2821 15.7619C19.4575 15.7953 19.592 15.9582 19.592 16.1529V16.5486H20.348ZM10.5209 6.21756C10.9676 6.21756 11.4099 6.31006 11.8226 6.48978C12.2353 6.6695 12.6103 6.93291 12.9262 7.26499C13.2421 7.59706 13.4927 7.99129 13.6636 8.42517C13.8346 8.85905 13.9225 9.32407 13.9225 9.7937C13.9225 10.2633 13.8346 10.7284 13.6636 11.1622C13.4927 11.5961 13.2421 11.9903 12.9262 12.3224C12.6103 12.6545 12.2353 12.9179 11.8226 13.0976C11.4099 13.2773 10.9676 13.3698 10.5209 13.3698C9.61867 13.3698 8.75343 12.9931 8.11549 12.3224C7.47755 11.6518 7.11916 10.7422 7.11916 9.7937C7.11916 8.84525 7.47755 7.93564 8.11549 7.26499C8.75343 6.59433 9.61867 6.21756 10.5209 6.21756V6.21756ZM10.5209 7.40961C9.27054 7.40961 8.25306 8.47927 8.25306 9.7937C8.25306 11.1081 9.27054 12.1778 10.5209 12.1778C11.7712 12.1778 12.7886 11.1081 12.7886 9.7937C12.7886 8.47927 11.7712 7.40961 10.5209 7.40961ZM17.3242 7.80696C18.0259 7.80696 18.6989 8.1 19.1951 8.62162C19.6913 9.14324 19.97 9.85071 19.97 10.5884C19.97 11.3261 19.6913 12.0336 19.1951 12.5552C18.6989 13.0768 18.0259 13.3698 17.3242 13.3698C16.6225 13.3698 15.9496 13.0768 15.4534 12.5552C14.9572 12.0336 14.6785 11.3261 14.6785 10.5884C14.6785 9.85071 14.9572 9.14324 15.4534 8.62162C15.9496 8.1 16.6225 7.80696 17.3242 7.80696V7.80696ZM17.3242 8.999C16.4904 8.999 15.8124 9.71185 15.8124 10.5884C15.8124 11.4649 16.4904 12.1778 17.3242 12.1778C18.158 12.1778 18.8361 11.4649 18.8361 10.5884C18.8361 9.71185 18.158 8.999 17.3242 8.999ZM13.1666 18.5354C13.1666 18.2192 13.2861 17.916 13.4987 17.6925C13.7114 17.4689 13.9998 17.3433 14.3005 17.3433H20.348C20.6487 17.3433 20.9371 17.4689 21.1498 17.6925C21.3624 17.916 21.4819 18.2192 21.4819 18.5354V21.7142C21.4819 22.0303 21.3624 22.3335 21.1498 22.5571C20.9371 22.7806 20.6487 22.9062 20.348 22.9062H14.3005C13.9998 22.9062 13.7114 22.7806 13.4987 22.5571C13.2861 22.3335 13.1666 22.0303 13.1666 21.7142V18.5354ZM20.7259 18.9327C20.5254 18.9327 20.3332 18.849 20.1914 18.7C20.0496 18.5509 19.97 18.3488 19.97 18.138H19.2141C19.2141 18.5596 19.3734 18.9638 19.6569 19.2619C19.9404 19.56 20.325 19.7274 20.7259 19.7274V18.9327ZM20.7259 20.5221C20.325 20.5221 19.9404 20.6896 19.6569 20.9876C19.3734 21.2857 19.2141 21.69 19.2141 22.1115H19.97C19.97 21.9008 20.0496 21.6986 20.1914 21.5496C20.3332 21.4005 20.5254 21.3168 20.7259 21.3168V20.5221ZM14.6785 18.138C14.6785 18.3488 14.5988 18.5509 14.4571 18.7C14.3153 18.849 14.123 18.9327 13.9225 18.9327V19.7274C14.3235 19.7274 14.7081 19.56 14.9916 19.2619C15.2751 18.9638 15.4344 18.5596 15.4344 18.138H14.6785ZM15.4344 22.1115C15.4344 21.69 15.2751 21.2857 14.9916 20.9876C14.7081 20.6896 14.3235 20.5221 13.9225 20.5221V21.3168C14.123 21.3168 14.3153 21.4005 14.4571 21.5496C14.5988 21.6986 14.6785 21.9008 14.6785 22.1115H15.4344ZM18.6471 20.1248C18.6471 19.7559 18.5077 19.4022 18.2597 19.1414C18.0116 18.8806 17.6751 18.7341 17.3242 18.7341C16.9734 18.7341 16.6369 18.8806 16.3888 19.1414C16.1407 19.4022 16.0014 19.7559 16.0014 20.1248C16.0014 20.4936 16.1407 20.8473 16.3888 21.1082C16.6369 21.369 16.9734 21.5155 17.3242 21.5155C17.6751 21.5155 18.0116 21.369 18.2597 21.1082C18.5077 20.8473 18.6471 20.4936 18.6471 20.1248V20.1248Z" fill="currentColor"/>
</svg>
