<svg width="16" height="16" viewBox="0 0 16 16" fill="currentColor" xmlns="http://www.w3.org/2000/svg">
<rect x="0.632935" y="0.624939" width="14.8047" height="14.8047" rx="7.40235" fill="white"/>
<path d="M8.24679 8.2555C8.46022 8.25543 8.66579 8.34017 8.82229 8.49274C8.97879 8.6453 9.07465 8.85442 9.09066 9.07816L9.09277 9.14487V9.36676H8.45828V9.14487C8.45822 9.09285 8.44084 9.0425 8.40917 9.00254C8.37749 8.96258 8.33351 8.93553 8.28486 8.92608L8.24679 8.92252L4.43986 8.92208L4.39756 8.92653C4.35697 8.93541 4.31966 8.95641 4.29012 8.987C4.26101 9.01787 4.24103 9.05695 4.2326 9.09951L4.22837 9.14442V10.0338C4.22837 10.4825 4.41871 10.7995 4.82775 11.0308C5.17714 11.2287 5.675 11.3483 6.20924 11.3656L6.34333 11.3678L6.47741 11.3656C6.78967 11.3576 7.09979 11.3092 7.4008 11.2215V11.9108C7.05395 11.9943 6.69916 12.0359 6.34333 12.0349C5.19194 12.0349 3.66367 11.6097 3.59599 10.1361L3.59388 10.0338V9.14442C3.59388 8.67572 3.93904 8.29152 4.37641 8.25728L4.43986 8.25505L8.24679 8.2555ZM11.8422 9.36676C11.9145 9.36676 11.9852 9.37432 12.0537 9.389V9.14487L12.0512 9.07816C12.035 8.85461 11.9391 8.64573 11.7827 8.49329C11.6263 8.34084 11.421 8.25608 11.2077 8.25594H9.18583L9.24251 8.32709C9.36983 8.49741 9.45866 8.70018 9.49419 8.92297H11.2077L11.2458 8.92653C11.3439 8.9452 11.4192 9.03636 11.4192 9.14531V9.36676H11.8422ZM6.34333 3.58588C6.59329 3.58588 6.84081 3.63764 7.07175 3.7382C7.30269 3.83876 7.51252 3.98616 7.68928 4.17198C7.86603 4.3578 8.00624 4.57839 8.1019 4.82117C8.19755 5.06396 8.24679 5.32417 8.24679 5.58695C8.24679 5.84974 8.19755 6.10995 8.1019 6.35273C8.00624 6.59551 7.86603 6.81611 7.68928 7.00193C7.51252 7.18774 7.30269 7.33514 7.07175 7.43571C6.84081 7.53627 6.59329 7.58803 6.34333 7.58803C5.8385 7.58803 5.35434 7.3772 4.99737 7.00193C4.64041 6.62665 4.43986 6.11767 4.43986 5.58695C4.43986 5.05623 4.64041 4.54725 4.99737 4.17198C5.35434 3.7967 5.8385 3.58588 6.34333 3.58588V3.58588ZM6.34333 4.2529C5.6437 4.2529 5.07435 4.85145 5.07435 5.58695C5.07435 6.32246 5.6437 6.921 6.34333 6.921C7.04295 6.921 7.6123 6.32246 7.6123 5.58695C7.6123 4.85145 7.04295 4.2529 6.34333 4.2529ZM10.1502 4.47524C10.5429 4.47524 10.9195 4.63922 11.1971 4.9311C11.4747 5.22298 11.6307 5.61885 11.6307 6.03164C11.6307 6.44442 11.4747 6.84029 11.1971 7.13217C10.9195 7.42405 10.5429 7.58803 10.1502 7.58803C9.7576 7.58803 9.38104 7.42405 9.1034 7.13217C8.82576 6.84029 8.66978 6.44442 8.66978 6.03164C8.66978 5.61885 8.82576 5.22298 9.1034 4.9311C9.38104 4.63922 9.7576 4.47524 10.1502 4.47524V4.47524ZM10.1502 5.14227C9.68369 5.14227 9.30427 5.54115 9.30427 6.03164C9.30427 6.52212 9.68369 6.921 10.1502 6.921C10.6168 6.921 10.9962 6.52212 10.9962 6.03164C10.9962 5.54115 10.6168 5.14227 10.1502 5.14227ZM7.8238 10.4785C7.8238 10.3016 7.89064 10.1319 8.00963 10.0068C8.12862 9.88172 8.29001 9.81145 8.45828 9.81145H11.8422C12.0105 9.81145 12.1719 9.88172 12.2909 10.0068C12.4099 10.1319 12.4767 10.3016 12.4767 10.4785V12.2572C12.4767 12.4341 12.4099 12.6038 12.2909 12.7289C12.1719 12.854 12.0105 12.9242 11.8422 12.9242H8.45828C8.29001 12.9242 8.12862 12.854 8.00963 12.7289C7.89064 12.6038 7.8238 12.4341 7.8238 12.2572V10.4785ZM12.0537 10.7008C11.9415 10.7008 11.8339 10.654 11.7546 10.5706C11.6753 10.4872 11.6307 10.3741 11.6307 10.2561H11.2077C11.2077 10.492 11.2969 10.7182 11.4555 10.885C11.6142 11.0518 11.8293 11.1455 12.0537 11.1455V10.7008ZM12.0537 11.5902C11.8293 11.5902 11.6142 11.6839 11.4555 11.8507C11.2969 12.0175 11.2077 12.2437 11.2077 12.4795H11.6307C11.6307 12.3616 11.6753 12.2485 11.7546 12.1651C11.8339 12.0817 11.9415 12.0349 12.0537 12.0349V11.5902ZM8.66978 10.2561C8.66978 10.3741 8.62521 10.4872 8.54589 10.5706C8.46656 10.654 8.35897 10.7008 8.24679 10.7008V11.1455C8.47116 11.1455 8.68634 11.0518 8.84499 10.885C9.00364 10.7182 9.09277 10.492 9.09277 10.2561H8.66978ZM9.09277 12.4795C9.09277 12.2437 9.00364 12.0175 8.84499 11.8507C8.68634 11.6839 8.47116 11.5902 8.24679 11.5902V12.0349C8.35897 12.0349 8.46656 12.0817 8.54589 12.1651C8.62521 12.2485 8.66978 12.3616 8.66978 12.4795H9.09277ZM10.8905 11.3678C10.8905 11.1614 10.8125 10.9635 10.6737 10.8176C10.5349 10.6716 10.3466 10.5896 10.1502 10.5896C9.95393 10.5896 9.76565 10.6716 9.62682 10.8176C9.488 10.9635 9.41001 11.1614 9.41001 11.3678C9.41001 11.5742 9.488 11.7722 9.62682 11.9181C9.76565 12.064 9.95393 12.146 10.1502 12.146C10.3466 12.146 10.5349 12.064 10.6737 11.9181C10.8125 11.7722 10.8905 11.5742 10.8905 11.3678V11.3678Z" fill="currentColor"/>
</svg>
