<svg width="24" height="24" viewBox="0 0 24 24" fill="none" xmlns="http://www.w3.org/2000/svg">
<path d="M12 11C10.9391 11 9.92172 10.5786 9.17157 9.82843C8.42143 9.07828 8 8.06087 8 7C8 5.93913 8.42143 4.92172 9.17157 4.17157C9.92172 3.42143 10.9391 3 12 3C13.0609 3 14.0783 3.42143 14.8284 4.17157C15.5786 4.92172 16 5.93913 16 7C16 8.06087 15.5786 9.07828 14.8284 9.82843C14.0783 10.5786 13.0609 11 12 11Z" stroke="black" stroke-width="2" stroke-linecap="round"/>
<path d="M4 21V20C4 18.4087 4.63214 16.8826 5.75736 15.7574C6.88258 14.6321 8.4087 14 10 14H14C15.5913 14 17.1174 14.6321 18.2426 15.7574C19.3679 16.8826 20 18.4087 20 20V21" stroke="black" stroke-width="2" stroke-linecap="round"/>
</svg>
