<svg width="11" height="11" viewBox="0 0 11 11" fill="none" xmlns="http://www.w3.org/2000/svg">
<path d="M7.92962 4.81252H10.6329C10.6655 4.81253 10.6975 4.82185 10.7251 4.83938C10.7526 4.85691 10.7746 4.88192 10.7885 4.9115C10.8023 4.94108 10.8074 4.97399 10.8033 5.00638C10.7991 5.03877 10.7858 5.0693 10.7649 5.09439L9.41325 6.71689C9.39712 6.73623 9.37693 6.7518 9.35412 6.76247C9.33131 6.77315 9.30643 6.77869 9.28125 6.77869C9.25606 6.77869 9.23118 6.77315 9.20837 6.76247C9.18556 6.7518 9.16538 6.73623 9.14925 6.71689L7.79762 5.09439C7.77672 5.0693 7.7634 5.03877 7.75922 5.00638C7.75505 4.97399 7.76018 4.94108 7.77403 4.9115C7.78788 4.88192 7.80987 4.85691 7.83743 4.83938C7.86498 4.82185 7.89696 4.81253 7.92962 4.81252ZM0.367123 6.18752H3.07037C3.10303 6.1875 3.13501 6.17819 3.16257 6.16066C3.19012 6.14313 3.21211 6.11811 3.22596 6.08853C3.23981 6.05896 3.24495 6.02605 3.24077 5.99366C3.23659 5.96127 3.22327 5.93074 3.20237 5.90564L1.85075 4.28314C1.83462 4.2638 1.81443 4.24824 1.79162 4.23756C1.76881 4.22688 1.74393 4.22134 1.71875 4.22134C1.69356 4.22134 1.66868 4.22688 1.64587 4.23756C1.62306 4.24824 1.60288 4.2638 1.58675 4.28314L0.235123 5.90564C0.214222 5.93074 0.200902 5.96127 0.196725 5.99366C0.192547 6.02605 0.197684 6.05896 0.211534 6.08853C0.225385 6.11811 0.247375 6.14313 0.27493 6.16066C0.302485 6.17819 0.334464 6.1875 0.367123 6.18752Z" fill="#5DA6C1"/>
<path fill-rule="evenodd" clip-rule="evenodd" d="M5.50001 2.06251C4.43301 2.06251 3.47876 2.54857 2.84832 3.31238C2.82017 3.34887 2.78497 3.37933 2.74481 3.40194C2.70465 3.42455 2.66036 3.43885 2.61456 3.444C2.56876 3.44915 2.5224 3.44504 2.47822 3.43191C2.43405 3.41878 2.39296 3.3969 2.35741 3.36758C2.32186 3.33825 2.29257 3.30207 2.27128 3.2612C2.24999 3.22033 2.23714 3.17559 2.23349 3.12965C2.22983 3.08371 2.23546 3.03751 2.25002 2.99378C2.26458 2.95006 2.28779 2.90971 2.31826 2.87513C2.82164 2.26568 3.48947 1.81364 4.24234 1.57277C4.9952 1.3319 5.80141 1.31234 6.56507 1.51642C7.32872 1.7205 8.0177 2.13962 8.55004 2.72394C9.08238 3.30826 9.43569 4.03319 9.56795 4.81251H8.86876C8.71003 4.03619 8.28808 3.3385 7.67425 2.83742C7.06042 2.33634 6.29239 2.0626 5.50001 2.06251ZM2.13126 6.18751C2.26141 6.82319 2.56875 7.40907 3.01777 7.87748C3.4668 8.34589 4.03918 8.6777 4.66879 8.83458C5.29841 8.99146 5.95956 8.96701 6.57587 8.76406C7.19218 8.5611 7.73849 8.18792 8.1517 7.68763C8.17985 7.65114 8.21505 7.62069 8.2552 7.59808C8.29536 7.57547 8.33966 7.56116 8.38545 7.55601C8.43125 7.55087 8.47761 7.55498 8.52179 7.56811C8.56596 7.58124 8.60705 7.60311 8.6426 7.63244C8.67815 7.66177 8.70744 7.69794 8.72873 7.73881C8.75002 7.77969 8.76287 7.82442 8.76653 7.87036C8.77018 7.9163 8.76456 7.96251 8.75 8.00623C8.73543 8.04996 8.71223 8.09031 8.68176 8.12488C8.17838 8.73433 7.51054 9.18638 6.75768 9.42725C6.00481 9.66811 5.19861 9.68767 4.43495 9.4836C3.67129 9.27952 2.98232 8.8604 2.44997 8.27607C1.91763 7.69175 1.56432 6.96682 1.43207 6.18751H2.13126Z" fill="#5DA6C1"/>
</svg>
