<svg width="47" height="56" viewBox="0 0 47 56" fill="currentColor" xmlns="http://www.w3.org/2000/svg">
<rect x="23.8536" y="9.34882" width="22.8061" height="22.0289" fill="#40A8C4"/>
<path d="M38.5818 21.0826H33.5777V26.3488H32.0052V14.4241H39.3926V15.7181H33.5777V19.7968H38.5818V21.0826Z" fill="white"/>
<rect x="23.8536" y="32.0884" width="22.8061" height="22.0289" fill="#07689F"/>
<path d="M38.6146 42.8658H33.4466V47.0919H39.4499V48.3777H31.8741V36.453H39.368V37.7471H33.4466V41.58H38.6146V42.8658Z" fill="white"/>
<rect x="0.340302" y="1.17679" width="22.8061" height="22.0289" fill="#07689F"/>
<path d="M10.1954 16.8909H15.8466V18.1768H8.61476V6.25207H10.1954V16.8909Z" fill="white"/>
<rect x="0.340302" y="23.9164" width="22.8061" height="22.0289" fill="#40A8C4"/>
<path d="M12.5296 40.9164H10.9571V28.9916H12.5296V40.9164Z" fill="white"/>
<path d="M16.9485 35.9774C16.7975 35.9774 16.6801 35.927 16.5962 35.8264C16.5291 35.709 16.4956 35.5748 16.4956 35.4238C16.5124 35.1723 16.5627 35.0213 16.6466 34.971C16.7304 34.9207 16.8898 34.8955 17.1246 34.8955C17.611 34.8955 17.9716 34.8116 18.2065 34.6439C18.4413 34.4594 18.5839 34.2413 18.6342 33.9897C18.7013 33.7214 18.7432 33.3775 18.76 32.9582V22.9949C18.7432 22.5588 18.7013 22.2149 18.6342 21.9633C18.5839 21.7117 18.4413 21.4937 18.2065 21.3092C17.9716 21.1247 17.611 21.0324 17.1246 21.0324H16.9736C16.8059 21.0324 16.6885 21.0073 16.6214 20.9569C16.5543 20.8898 16.5124 20.7389 16.4956 20.5041C16.4956 20.3531 16.5291 20.2273 16.5962 20.1267C16.6801 20.0092 16.7975 19.9505 16.9485 19.9505C18.0387 20.0009 19.0367 20.026 19.9425 20.026H24.27C25.5615 20.0428 26.635 20.2525 27.4905 20.655C28.3627 21.0408 29.0001 21.544 29.4026 22.1646C29.8052 22.7684 30.0064 23.4226 30.0064 24.1271C30.0064 25.0496 29.6374 25.8967 28.8994 26.6682C28.1782 27.4398 27.1885 27.9933 25.9305 28.3288L26.3583 29.0081C27.0627 30.1487 27.7001 31.1299 28.2704 31.9518C28.8407 32.7569 29.4613 33.5117 30.1322 34.2162C30.6019 34.602 31.1051 34.8284 31.6418 34.8955C31.6754 34.8955 31.7509 34.9039 31.8683 34.9207C31.9857 34.9207 32.0779 34.9626 32.145 35.0465C32.2289 35.1303 32.2708 35.2561 32.2708 35.4238C32.2708 35.5748 32.2289 35.709 32.145 35.8264C32.0779 35.927 31.9689 35.9774 31.818 35.9774L31.1638 35.9522C30.4258 35.9187 29.889 35.9019 29.5536 35.9019C28.8826 35.7677 28.304 35.5329 27.8175 35.1974C27.3479 34.8452 26.8782 34.3504 26.4086 33.713C25.9222 33.0756 25.2428 32.0357 24.3706 30.5932L23.9178 29.8635C23.6662 29.4777 23.4229 29.2178 23.1881 29.0836C22.9533 28.9326 22.5507 28.8571 21.9805 28.8571H21.2508V32.9582C21.2676 33.3775 21.3011 33.7214 21.3515 33.9897C21.4185 34.2413 21.5695 34.4594 21.8043 34.6439C22.0392 34.8116 22.3998 34.8955 22.8862 34.8955H23.0372C23.1881 34.8955 23.2972 34.929 23.3642 34.9961C23.4481 35.0465 23.4984 35.189 23.5152 35.4238C23.5152 35.5748 23.4733 35.709 23.3894 35.8264C23.3223 35.927 23.2133 35.9774 23.0623 35.9774C21.9888 35.927 20.9405 35.9019 19.9173 35.9019C19.0284 35.9019 18.0387 35.927 16.9485 35.9774ZM23.4649 27.8759C25.9641 27.8759 27.2137 26.7018 27.2137 24.3535C27.2137 23.3974 26.8866 22.5923 26.2325 21.9382C25.5783 21.284 24.5048 20.9569 23.012 20.9569C22.5256 20.9569 22.1566 21.0156 21.905 21.1331C21.6534 21.2505 21.4773 21.4517 21.3766 21.7369C21.2927 22.022 21.2508 22.4581 21.2508 23.0452V27.8759H23.4649Z" fill="currentColor"/>
</svg>
