<svg width="25" height="25" viewBox="0 0 25 25" fill="none" xmlns="http://www.w3.org/2000/svg">
<path d="M22.751 6.34478L18.6552 2.24897C18.2157 1.80944 17.6195 1.5625 16.9979 1.5625H3.90625C2.61182 1.5625 1.5625 2.61182 1.5625 3.90625V21.0938C1.5625 22.3882 2.61182 23.4375 3.90625 23.4375H21.0938C22.3882 23.4375 23.4375 22.3882 23.4375 21.0938V8.00205C23.4375 7.38045 23.1906 6.78431 22.751 6.34478V6.34478ZM12.5 20.3125C10.7741 20.3125 9.375 18.9134 9.375 17.1875C9.375 15.4616 10.7741 14.0625 12.5 14.0625C14.2259 14.0625 15.625 15.4616 15.625 17.1875C15.625 18.9134 14.2259 20.3125 12.5 20.3125ZM17.1875 5.44336V10.3516C17.1875 10.6751 16.9251 10.9375 16.6016 10.9375H5.27344C4.94985 10.9375 4.6875 10.6751 4.6875 10.3516V5.27344C4.6875 4.94985 4.94985 4.6875 5.27344 4.6875H16.4316C16.5871 4.6875 16.7361 4.74922 16.8459 4.85913L17.0159 5.02905C17.0703 5.08345 17.1135 5.14804 17.1429 5.21913C17.1724 5.29022 17.1875 5.36641 17.1875 5.44336V5.44336Z" fill="black"/>
</svg>
