<svg width="26" height="26" viewBox="0 0 26 26" fill="none" xmlns="http://www.w3.org/2000/svg">
<g clip-path="url(#clip0_347_654)">
<path d="M15.4846 2.6926C15.4846 3.98704 14.4353 5.03635 13.1409 5.03635C11.8464 5.03635 10.7971 3.98704 10.7971 2.6926C10.7971 1.39817 11.8464 0.348852 13.1409 0.348852C14.4353 0.348852 15.4846 1.39817 15.4846 2.6926ZM13.1409 20.6614C11.8464 20.6614 10.7971 21.7107 10.7971 23.0051C10.7971 24.2995 11.8464 25.3489 13.1409 25.3489C14.4353 25.3489 15.4846 24.2995 15.4846 23.0051C15.4846 21.7107 14.4353 20.6614 13.1409 20.6614ZM23.2971 10.5051C22.0027 10.5051 20.9534 11.5544 20.9534 12.8489C20.9534 14.1433 22.0027 15.1926 23.2971 15.1926C24.5916 15.1926 25.6409 14.1433 25.6409 12.8489C25.6409 11.5544 24.5916 10.5051 23.2971 10.5051ZM5.32837 12.8489C5.32837 11.5544 4.27905 10.5051 2.98462 10.5051C1.69019 10.5051 0.640869 11.5544 0.640869 12.8489C0.640869 14.1433 1.69019 15.1926 2.98462 15.1926C4.27905 15.1926 5.32837 14.1433 5.32837 12.8489ZM5.95933 17.6866C4.66489 17.6866 3.61558 18.736 3.61558 20.0304C3.61558 21.3248 4.66489 22.3741 5.95933 22.3741C7.25376 22.3741 8.30308 21.3248 8.30308 20.0304C8.30308 18.736 7.25371 17.6866 5.95933 17.6866ZM20.3224 17.6866C19.028 17.6866 17.9787 18.736 17.9787 20.0304C17.9787 21.3248 19.028 22.3741 20.3224 22.3741C21.6168 22.3741 22.6662 21.3248 22.6662 20.0304C22.6662 18.736 21.6168 17.6866 20.3224 17.6866ZM5.95933 3.32356C4.66489 3.32356 3.61558 4.37288 3.61558 5.66731C3.61558 6.96174 4.66489 8.01106 5.95933 8.01106C7.25376 8.01106 8.30308 6.96174 8.30308 5.66731C8.30308 4.37288 7.25371 3.32356 5.95933 3.32356Z" fill="black"/>
</g>
<defs>
<clipPath id="clip0_347_654">
<rect width="25" height="25" fill="white" transform="translate(0.640869 0.348852)"/>
</clipPath>
</defs>
</svg>
