<svg width="28" height="28" viewBox="0 0 28 28" fill="none" xmlns="http://www.w3.org/2000/svg">
<path d="M19.8496 12.3763H26.4068C26.486 12.3763 26.5636 12.3989 26.6304 12.4414C26.6973 12.4839 26.7506 12.5446 26.7842 12.6164C26.8178 12.6881 26.8303 12.7679 26.8201 12.8465C26.81 12.9251 26.7777 12.9991 26.727 13.06L23.4484 16.9957C23.4092 17.0426 23.3603 17.0803 23.305 17.1062C23.2496 17.1321 23.1893 17.1456 23.1282 17.1456C23.0671 17.1456 23.0067 17.1321 22.9514 17.1062C22.8961 17.0803 22.8471 17.0426 22.808 16.9957L19.5294 13.06C19.4787 12.9991 19.4464 12.9251 19.4362 12.8465C19.4261 12.7679 19.4386 12.6881 19.4722 12.6164C19.5058 12.5446 19.5591 12.4839 19.626 12.4414C19.6928 12.3989 19.7704 12.3763 19.8496 12.3763V12.3763ZM1.50541 15.7116H8.06262C8.14184 15.7115 8.21941 15.6889 8.28625 15.6464C8.35309 15.6039 8.40643 15.5432 8.44003 15.4715C8.47362 15.3997 8.48608 15.3199 8.47595 15.2413C8.46582 15.1628 8.43351 15.0887 8.38281 15.0278L5.1042 11.0922C5.06508 11.0453 5.01612 11.0075 4.96078 10.9816C4.90545 10.9557 4.84511 10.9423 4.78401 10.9423C4.72292 10.9423 4.66257 10.9557 4.60724 10.9816C4.55191 11.0075 4.50295 11.0453 4.46383 11.0922L1.18522 15.0278C1.13452 15.0887 1.10221 15.1628 1.09208 15.2413C1.08195 15.3199 1.09441 15.3997 1.128 15.4715C1.1616 15.5432 1.21494 15.6039 1.28178 15.6464C1.34862 15.6889 1.42619 15.7115 1.50541 15.7116V15.7116Z" fill="#5DA6C1"/>
<path fill-rule="evenodd" clip-rule="evenodd" d="M13.9561 5.70566C11.3679 5.70566 9.05321 6.88469 7.52397 8.73745C7.45569 8.82596 7.3703 8.89983 7.27289 8.95468C7.17548 9.00952 7.06804 9.04422 6.95695 9.05671C6.84587 9.0692 6.7334 9.05923 6.62625 9.02738C6.51909 8.99553 6.41943 8.94246 6.3332 8.87133C6.24696 8.80019 6.17591 8.71244 6.12427 8.6133C6.07263 8.51415 6.04145 8.40564 6.03259 8.2942C6.02373 8.18277 6.03737 8.07069 6.07269 7.96463C6.10801 7.85857 6.1643 7.76069 6.23821 7.67682C7.45925 6.19849 9.07921 5.10198 10.9054 4.51771C12.7316 3.93344 14.6872 3.886 16.5396 4.38102C18.392 4.87605 20.0632 5.89271 21.3545 7.31008C22.6458 8.72746 23.5028 10.4859 23.8236 12.3763H22.1276C21.7426 10.4932 20.7191 8.80081 19.2301 7.58534C17.7412 6.36988 15.8782 5.70589 13.9561 5.70566V5.70566ZM5.78461 15.7116C6.10031 17.2535 6.84582 18.6747 7.93501 19.8109C9.0242 20.9471 10.4126 21.752 11.9399 22.1325C13.4671 22.5131 15.0708 22.4537 16.5658 21.9614C18.0608 21.4691 19.386 20.5639 20.3882 19.3504C20.4565 19.2619 20.5419 19.188 20.6393 19.1332C20.7367 19.0783 20.8442 19.0436 20.9553 19.0311C21.0664 19.0186 21.1788 19.0286 21.286 19.0605C21.3931 19.0923 21.4928 19.1454 21.579 19.2165C21.6653 19.2876 21.7363 19.3754 21.7879 19.4745C21.8396 19.5737 21.8708 19.6822 21.8796 19.7936C21.8885 19.9051 21.8749 20.0172 21.8395 20.1232C21.8042 20.2293 21.7479 20.3271 21.674 20.411C20.453 21.8893 18.833 22.9859 17.0068 23.5701C15.1806 24.1544 13.225 24.2018 11.3726 23.7068C9.52023 23.2118 7.84901 22.1951 6.55772 20.7778C5.26642 19.3604 4.40941 17.6019 4.08861 15.7116H5.78461Z" fill="#5DA6C1"/>
</svg>
