<svg width="27" height="28" viewBox="0 0 27 28" fill="currentColor" xmlns="http://www.w3.org/2000/svg">
<path d="M7.23008 0.926026C6.74711 0.925773 6.27595 1.07532 5.88153 1.35406C5.48712 1.6328 5.18886 2.02701 5.02787 2.48236H2.56109C1.94194 2.48236 1.34815 2.72831 0.910351 3.16611C0.472548 3.60392 0.226593 4.19771 0.226593 4.81685V23.4928C0.226593 24.112 0.472548 24.7058 0.910351 25.1436C1.34815 25.5814 1.94194 25.8273 2.56109 25.8273H13.0772C12.6808 25.3472 12.338 24.8254 12.0547 24.271H2.56109C2.35471 24.271 2.15678 24.189 2.01084 24.0431C1.86491 23.8971 1.78292 23.6992 1.78292 23.4928V4.81685C1.78292 4.61047 1.86491 4.41254 2.01084 4.26661C2.15678 4.12067 2.35471 4.03869 2.56109 4.03869H5.02787C5.18886 4.49404 5.48712 4.88824 5.88153 5.16698C6.27595 5.44572 6.74711 5.59527 7.23008 5.59502H11.8991C12.382 5.59527 12.8532 5.44572 13.2476 5.16698C13.642 4.88824 13.9403 4.49404 14.1013 4.03869H16.5681C16.7744 4.03869 16.9724 4.12067 17.1183 4.26661C17.2642 4.41254 17.3462 4.61047 17.3462 4.81685V12.1425C17.855 11.9985 18.376 11.9021 18.9026 11.8546V4.81685C18.9026 4.19771 18.6566 3.60392 18.2188 3.16611C17.781 2.72831 17.1872 2.48236 16.5681 2.48236H14.1013C13.9403 2.02701 13.642 1.6328 13.2476 1.35406C12.8532 1.07532 12.382 0.925773 11.8991 0.926026H7.23008ZM6.45192 3.26052C6.45192 3.05414 6.5339 2.85621 6.67983 2.71028C6.82577 2.56434 7.0237 2.48236 7.23008 2.48236H11.8991C12.1055 2.48236 12.3034 2.56434 12.4493 2.71028C12.5953 2.85621 12.6772 3.05414 12.6772 3.26052C12.6772 3.4669 12.5953 3.66483 12.4493 3.81077C12.3034 3.9567 12.1055 4.03869 11.8991 4.03869H7.23008C7.0237 4.03869 6.82577 3.9567 6.67983 3.81077C6.5339 3.66483 6.45192 3.4669 6.45192 3.26052ZM14.0063 13.1494C14.1525 13.0033 14.2346 12.8051 14.2346 12.5985C14.2346 12.3919 14.1525 12.1937 14.0063 12.0476C13.8602 11.9014 13.662 11.8194 13.4554 11.8194C13.2488 11.8194 13.0506 11.9014 12.9045 12.0476L8.00825 16.9453L6.22469 15.1602C6.15234 15.0879 6.06645 15.0305 5.97192 14.9913C5.87739 14.9522 5.77607 14.932 5.67375 14.932C5.57143 14.932 5.47011 14.9522 5.37558 14.9913C5.28105 15.0305 5.19516 15.0879 5.12281 15.1602C5.05046 15.2326 4.99307 15.3185 4.95391 15.413C4.91475 15.5075 4.8946 15.6088 4.8946 15.7112C4.8946 15.8135 4.91475 15.9148 4.95391 16.0093C4.99307 16.1039 5.05046 16.1898 5.12281 16.2621L7.4573 18.5966C7.52959 18.6691 7.61546 18.7266 7.71 18.7658C7.80454 18.805 7.90589 18.8252 8.00825 18.8252C8.1106 18.8252 8.21195 18.805 8.30649 18.7658C8.40103 18.7266 8.4869 18.6691 8.55919 18.5966L14.0063 13.1494ZM26.6842 20.3802C26.6842 22.2376 25.9463 24.019 24.6329 25.3324C23.3195 26.6458 21.5382 27.3836 19.6807 27.3836C17.8233 27.3836 16.0419 26.6458 14.7285 25.3324C13.4151 24.019 12.6772 22.2376 12.6772 20.3802C12.6772 18.5227 13.4151 16.7414 14.7285 15.4279C16.0419 14.1145 17.8233 13.3767 19.6807 13.3767C21.5382 13.3767 23.3195 14.1145 24.6329 15.4279C25.9463 16.7414 26.6842 18.5227 26.6842 20.3802V20.3802ZM20.4589 17.2675C20.4589 17.0611 20.3769 16.8632 20.231 16.7172C20.085 16.5713 19.8871 16.4893 19.6807 16.4893C19.4743 16.4893 19.2764 16.5713 19.1305 16.7172C18.9845 16.8632 18.9026 17.0611 18.9026 17.2675V19.602H16.5681C16.3617 19.602 16.1638 19.684 16.0178 19.8299C15.8719 19.9758 15.7899 20.1738 15.7899 20.3802C15.7899 20.5865 15.8719 20.7845 16.0178 20.9304C16.1638 21.0763 16.3617 21.1583 16.5681 21.1583H18.9026V23.4928C18.9026 23.6992 18.9845 23.8971 19.1305 24.0431C19.2764 24.189 19.4743 24.271 19.6807 24.271C19.8871 24.271 20.085 24.189 20.231 24.0431C20.3769 23.8971 20.4589 23.6992 20.4589 23.4928V21.1583H22.7934C22.9998 21.1583 23.1977 21.0763 23.3436 20.9304C23.4896 20.7845 23.5716 20.5865 23.5716 20.3802C23.5716 20.1738 23.4896 19.9758 23.3436 19.8299C23.1977 19.684 22.9998 19.602 22.7934 19.602H20.4589V17.2675Z" fill="currentColor"/>
</svg>
