<svg width="16" height="16" viewBox="0 0 16 16" fill="currentColor" xmlns="http://www.w3.org/2000/svg">
<rect x="0.944935" y="0.624939" width="14.8047" height="14.8047" rx="7.40235" fill="white"/>
<path d="M9.13299 3.26483C9.10048 2.96626 8.96193 2.69046 8.74382 2.49016C8.52571 2.28987 8.24336 2.17913 7.95073 2.17912H6.10014C5.80752 2.17913 5.52516 2.28987 5.30706 2.49016C5.08895 2.69046 4.9504 2.96626 4.91788 3.26483H3.98519C3.66967 3.26483 3.36707 3.39352 3.14397 3.62258C2.92086 3.85164 2.79552 4.16231 2.79552 4.48625V11.8148C2.79552 12.1387 2.92086 12.4494 3.14397 12.6785C3.36707 12.9075 3.66967 13.0362 3.98519 13.0362H8.5112C8.28452 12.7939 8.0926 12.5198 7.94122 12.2219H3.98519C3.88001 12.2219 3.77915 12.179 3.70478 12.1027C3.63041 12.0263 3.58863 11.9228 3.58863 11.8148V4.48625C3.58863 4.37827 3.63041 4.27471 3.70478 4.19836C3.77915 4.12201 3.88001 4.07911 3.98519 4.07911H5.11087C5.32448 4.40645 5.68773 4.62197 6.10014 4.62197H7.95073C8.36315 4.62197 8.72639 4.40645 8.94 4.07911H10.0657C10.1709 4.07911 10.2717 4.12201 10.3461 4.19836C10.4205 4.27471 10.4622 4.37827 10.4622 4.48625V7.10606C10.7246 7.0646 10.9907 7.05422 11.2554 7.07512V4.48625C11.2554 4.16231 11.13 3.85164 10.9069 3.62258C10.6838 3.39352 10.3812 3.26483 10.0657 3.26483H9.13299ZM9.13775 3.31694L9.1404 3.40054C9.1404 3.37232 9.13934 3.34463 9.13775 3.31694V3.31694ZM6.10014 2.9934H7.95073C8.05591 2.9934 8.15677 3.0363 8.23114 3.11265C8.30551 3.18901 8.34729 3.29256 8.34729 3.40054C8.34729 3.50852 8.30551 3.61208 8.23114 3.68844C8.15677 3.76479 8.05591 3.80768 7.95073 3.80768H6.10014C5.99497 3.80768 5.89411 3.76479 5.81974 3.68844C5.74537 3.61208 5.70359 3.50852 5.70359 3.40054C5.70359 3.29256 5.74537 3.18901 5.81974 3.11265C5.89411 3.0363 5.99497 2.9934 6.10014 2.9934ZM8.06018 8.74983C8.34421 8.27521 8.73311 7.87593 9.19539 7.58432L9.685 7.08109C9.72396 7.04382 9.75521 6.99887 9.77688 6.94893C9.79856 6.89899 9.81021 6.84507 9.81115 6.79041C9.81209 6.73574 9.8023 6.68144 9.78235 6.63074C9.76241 6.58005 9.73272 6.534 9.69506 6.49533C9.65741 6.45667 9.61255 6.42619 9.56318 6.40572C9.5138 6.38524 9.46091 6.37518 9.40766 6.37615C9.35442 6.37711 9.30191 6.38908 9.25326 6.41133C9.20462 6.43358 9.16084 6.46567 9.12453 6.50567L6.4967 9.20365L5.45508 8.13423C5.37991 8.06231 5.28048 8.02316 5.17775 8.02502C5.07501 8.02688 4.97699 8.06961 4.90434 8.14421C4.83168 8.2188 4.79006 8.31944 4.78825 8.42492C4.78644 8.53039 4.82457 8.63247 4.89462 8.70966L6.21647 10.0668C6.29082 10.143 6.39161 10.1859 6.4967 10.1859C6.60179 10.1859 6.70258 10.143 6.77693 10.0668L8.06018 8.74983V8.74983ZM13.8991 10.5934C13.8991 9.8015 13.5927 9.04208 13.0473 8.48215C12.5019 7.92223 11.7623 7.60766 10.991 7.60766C10.2197 7.60766 9.48004 7.92223 8.93467 8.48215C8.3893 9.04208 8.08292 9.8015 8.08292 10.5934C8.08292 11.3852 8.3893 12.1446 8.93467 12.7046C9.48004 13.2645 10.2197 13.5791 10.991 13.5791C11.7623 13.5791 12.5019 13.2645 13.0473 12.7046C13.5927 12.1446 13.8991 11.3852 13.8991 10.5934ZM11.2554 10.8648L11.2559 12.2235C11.2559 12.2955 11.228 12.3646 11.1785 12.4155C11.1289 12.4664 11.0616 12.495 10.9915 12.495C10.9214 12.495 10.8542 12.4664 10.8046 12.4155C10.755 12.3646 10.7271 12.2955 10.7271 12.2235V10.8648H9.40265C9.33254 10.8648 9.26529 10.8362 9.21571 10.7853C9.16613 10.7344 9.13828 10.6653 9.13828 10.5934C9.13828 10.5214 9.16613 10.4523 9.21571 10.4014C9.26529 10.3505 9.33254 10.3219 9.40265 10.3219H10.7266V8.9648C10.7266 8.89281 10.7545 8.82377 10.804 8.77287C10.8536 8.72197 10.9209 8.69337 10.991 8.69337C11.0611 8.69337 11.1283 8.72197 11.1779 8.77287C11.2275 8.82377 11.2554 8.89281 11.2554 8.9648V10.3219H12.5756C12.6457 10.3219 12.713 10.3505 12.7626 10.4014C12.8121 10.4523 12.84 10.5214 12.84 10.5934C12.84 10.6653 12.8121 10.7344 12.7626 10.7853C12.713 10.8362 12.6457 10.8648 12.5756 10.8648H11.2554Z" fill="currentColor"/>
</svg>
