<svg width="26" height="26" viewBox="0 0 26 26" fill="none" xmlns="http://www.w3.org/2000/svg">
<g clip-path="url(#clip0_348_654)">
<path d="M13.0992 0.86826C9.86345 0.874071 6.92551 2.14917 4.75647 4.22202L3.01262 2.47817C2.27434 1.73989 1.01208 2.26274 1.01208 3.30679V9.85263C1.01208 10.4999 1.53674 11.0245 2.18396 11.0245H8.72981C9.77385 11.0245 10.2967 9.76225 9.55847 9.02397L7.5199 6.9854C9.02693 5.57432 10.977 4.79267 13.0487 4.7748C17.5603 4.73584 21.3633 8.38696 21.3243 13.0483C21.2873 17.4703 17.7023 21.1808 13.1215 21.1808C11.1133 21.1808 9.21536 20.4641 7.7196 19.1517C7.48801 18.9485 7.13826 18.9608 6.92039 19.1787L4.98376 21.1153C4.74587 21.3532 4.75764 21.741 5.0073 21.9665C7.15457 23.906 10.0001 25.087 13.1215 25.087C19.8093 25.087 25.2308 19.6655 25.2308 12.9777C25.2309 6.29761 19.7794 0.856297 13.0992 0.86826Z" fill="black"/>
</g>
<defs>
<clipPath id="clip0_348_654">
<rect width="25" height="25" fill="white" transform="translate(0.62146 0.477638)"/>
</clipPath>
</defs>
</svg>
