<svg width="18" height="18" viewBox="0 0 18 18" fill="none" xmlns="http://www.w3.org/2000/svg">
<g clip-path="url(#clip0)">
<path d="M5.77185 11.3181C5.62211 11.4583 5.47101 11.2909 5.47101 11.2909C5.47101 11.2909 2.95542 8.62554 2.79207 8.50575C2.56202 8.33832 2.06925 8.0756 1.57648 8.58334C1.37093 8.79434 1.03606 9.26397 1.65815 10.0208C1.79291 10.1842 5.71195 14.3142 5.94064 14.5375C5.94064 14.5375 7.75111 16.2989 8.84691 16.9618C9.15047 17.1456 9.49214 17.3403 9.89099 17.4764C10.2885 17.6125 10.7377 17.7064 11.2114 17.7064C11.6851 17.7119 12.1765 17.6207 12.6407 17.4505C13.1049 17.279 13.5378 17.0299 13.9312 16.7427C14.0278 16.6692 14.1258 16.5957 14.217 16.5167L14.4811 16.2989C14.6615 16.1465 14.835 15.9862 15.0011 15.8184C15.3319 15.489 15.63 15.1364 15.8927 14.7757C16.1541 14.4136 16.376 14.0392 16.5529 13.6663C16.7299 13.2933 16.8538 12.9189 16.9287 12.565C17.0076 12.2124 17.0294 11.8789 17.0171 11.5876C17.0144 11.2963 16.9559 11.0472 16.9082 10.8485C16.8538 10.6497 16.7953 10.5013 16.749 10.4033C16.704 10.3053 16.6795 10.2536 16.6795 10.2536C16.6169 10.078 16.557 9.91056 16.5039 9.75946C16.3035 9.19212 16.0989 8.62628 15.89 8.06199L15.8914 8.06607C15.2312 6.2733 14.522 4.42609 14.522 4.42609C14.4144 4.10075 14.0183 3.98777 13.727 4.1974C12.8857 4.80179 12.6285 5.68388 12.9252 6.62451L13.6862 8.70994C13.7937 8.94272 13.4969 9.21224 13.2982 9.05025C12.6734 8.54115 11.3516 7.1377 11.3516 7.1377C10.7608 6.57142 7.42713 3.15332 7.20388 2.94505C6.75467 2.52714 6.18839 2.31207 5.75687 2.62924C5.31583 2.95322 5.19332 3.45415 5.61939 4.00138C5.7351 4.14975 9.10419 7.70942 9.10419 7.70942C9.30021 7.91497 9.0688 8.20628 8.85236 8.00618C8.85236 8.00618 4.66107 3.63384 4.47185 3.42965C4.04306 2.96411 3.35427 2.86201 2.94589 3.24588C2.54705 3.62023 2.55658 4.23415 2.99218 4.71603C3.13102 4.86849 6.08357 7.98576 7.26514 9.26261C7.34409 9.34837 7.40535 9.46271 7.28828 9.57025C7.28692 9.57161 7.16849 9.69957 7.01603 9.53622C6.69478 9.19318 3.48631 5.84996 3.30799 5.66891C2.89825 5.25237 2.3483 5.05498 1.9059 5.46064C1.50297 5.82954 1.43763 6.47341 1.90045 6.92807L5.78682 11.0363C5.78682 11.0363 5.91342 11.1861 5.77185 11.3181Z" fill="#FAC036"/>
<path d="M12.0812 7.8932L12.4093 8.24441C12.4093 8.24441 10.5321 10.0562 11.8117 12.8386C11.8117 12.8386 11.9778 13.1912 11.76 13.2497C11.76 13.2497 11.5694 13.3559 11.3516 12.8141C11.3516 12.8128 10.0598 10.1706 12.0812 7.8932Z" fill="#E48C15"/>
<path d="M9.06199 1.87646C9.06199 1.87646 9.85288 1.99625 10.5852 2.78033C11.3176 3.56578 11.6565 4.57446 11.6565 4.57446" stroke="#444444" stroke-width="0.5445" stroke-miterlimit="10" stroke-linecap="round"/>
<path d="M10.9895 0.964432C10.9895 0.964432 11.6524 1.29794 12.1643 2.12149C12.6761 2.94505 12.8 3.89793 12.8 3.89793" stroke="#444444" stroke-width="0.5445" stroke-miterlimit="10" stroke-linecap="round"/>
<path d="M5.30902 15.5611C5.30902 15.5611 4.51133 15.6142 3.62788 15.0044C2.74443 14.3945 2.19584 13.4825 2.19584 13.4825" stroke="#444444" stroke-width="0.5445" stroke-miterlimit="10" stroke-linecap="round"/>
<path d="M4.74002 16.8992C4.74002 16.8992 3.9995 16.9305 3.15008 16.4609C2.30066 15.9913 1.72894 15.2194 1.72894 15.2194" stroke="#444444" stroke-width="0.5445" stroke-miterlimit="10" stroke-linecap="round"/>
</g>
<defs>
<clipPath id="clip0">
<rect width="17.424" height="17.424" fill="white" transform="translate(0.447998 0.488007)"/>
</clipPath>
</defs>
</svg>
