<svg width="16" height="16" viewBox="0 0 16 16" fill="none" xmlns="http://www.w3.org/2000/svg">
<path d="M10.6593 2.66667L9.65734 3.66667H3.50001L3.40401 3.67067C3.11221 3.69476 2.84014 3.82769 2.6418 4.04307C2.44346 4.25846 2.33335 4.54054 2.33334 4.83334V6.32667L4.07334 5.23334C4.39379 5.03189 4.77855 4.95903 5.15047 5.02938C5.52238 5.09974 5.85395 5.30809 6.07868 5.61267L6.14201 5.70533C6.27096 5.91068 6.34821 6.14423 6.36713 6.38596C6.38606 6.6277 6.3461 6.87042 6.25068 7.09333L6.19801 7.204L5.39268 8.728C5.34514 8.81803 5.32622 8.92042 5.33844 9.02148C5.35066 9.12255 5.39344 9.21748 5.46106 9.29358C5.52868 9.36969 5.61792 9.42333 5.71685 9.44735C5.81578 9.47137 5.91969 9.46462 6.01468 9.428L6.08001 9.39733L7.25334 8.73533C7.36341 8.6738 7.49267 8.65612 7.61521 8.68585C7.73776 8.71558 7.84455 8.79051 7.91419 8.89564C7.98382 9.00077 8.01117 9.12833 7.99074 9.25277C7.9703 9.3772 7.90361 9.48932 7.80401 9.56667L7.74734 9.60467L6.57068 10.2687C6.29634 10.4231 5.98037 10.4873 5.66753 10.4521C5.35469 10.417 5.06083 10.2843 4.82758 10.0729C4.59433 9.86145 4.43351 9.582 4.3679 9.27411C4.30229 8.96621 4.33522 8.64548 4.46201 8.35733L4.50868 8.26067L5.31401 6.73667C5.36238 6.64496 5.38104 6.54049 5.36742 6.43771C5.35379 6.33493 5.30855 6.23892 5.23796 6.16299C5.16737 6.08705 5.07492 6.03493 4.9734 6.01386C4.87189 5.99278 4.76633 6.00378 4.67134 6.04533L4.60601 6.08L2.33334 7.508V11.17C2.33334 11.814 2.85601 12.3367 3.50001 12.3367H12.5C12.8094 12.3367 13.1062 12.2138 13.325 11.995C13.5438 11.7762 13.6667 11.4794 13.6667 11.17V6.29533L14.6667 5.29734V11.17C14.6667 11.4545 14.6106 11.7363 14.5017 11.9991C14.3929 12.262 14.2333 12.5009 14.0321 12.7021C13.8309 12.9033 13.592 13.0629 13.3292 13.1717C13.0663 13.2806 12.7845 13.3367 12.5 13.3367H3.50001C2.92537 13.3367 2.37427 13.1084 1.96795 12.7021C1.56162 12.2957 1.33334 11.7446 1.33334 11.17V4.83334C1.33331 4.27991 1.54505 3.74745 1.92512 3.34518C2.3052 2.94291 2.82481 2.70133 3.37734 2.67L3.50001 2.66667H10.6593ZM14.1167 2.36334L14.2033 2.44334L14.284 2.53C14.5316 2.81953 14.6608 3.19181 14.6459 3.57247C14.6309 3.95312 14.4729 4.31412 14.2033 4.58334L11.3493 7.432C11.1739 7.60688 10.958 7.7356 10.7207 7.80667L9.16934 8.27333C9.05288 8.30842 8.92903 8.31098 8.81121 8.28072C8.6934 8.25046 8.5861 8.18855 8.50096 8.10168C8.41581 8.01482 8.35605 7.90631 8.32815 7.78791C8.30025 7.66952 8.30527 7.54575 8.34268 7.43L8.83534 5.9C8.90868 5.67334 9.03468 5.46667 9.20334 5.298L12.0633 2.44267C12.3327 2.17337 12.6937 2.01557 13.0744 2.00074C13.455 1.98591 13.8272 2.11515 14.1167 2.36267V2.36334ZM12.77 3.15L9.91001 6.006C9.85386 6.06201 9.81181 6.13056 9.78734 6.206L9.48934 7.13267L10.4333 6.84933C10.5124 6.82543 10.5843 6.78238 10.6427 6.724L13.496 3.87534L13.546 3.818C13.625 3.71408 13.6614 3.58394 13.6477 3.45412C13.634 3.32431 13.5714 3.20459 13.4725 3.11939C13.3736 3.03419 13.2459 2.98992 13.1155 2.99561C12.9851 3.0013 12.8618 3.05651 12.7707 3.15H12.77Z" fill="black"/>
</svg>
